<?xml version="1.0" encoding="utf-8"?>
<!-- Generator: Adobe Illustrator 25.4.1, SVG Export Plug-In . SVG Version: 6.00 Build 0)  -->
<svg version="1.1" id="Layer_1" xmlns="http://www.w3.org/2000/svg" xmlns:xlink="http://www.w3.org/1999/xlink" x="0px" y="0px"
	 viewBox="0 0 233.7 62.3" style="enable-background:new 0 0 233.7 62.3;" xml:space="preserve">
<style type="text/css">
	.st0{fill:none;stroke:#000000;stroke-miterlimit:10;}
</style>
<polygon class="st0" points="116.8,0.5 0.5,14.8 0.5,47.5 116.8,61.8 233.2,47.5 233.2,14.8 "/>
<polygon class="st0" points="116.8,4.1 3.5,17.6 3.5,44.6 116.8,58.1 230.2,44.6 230.2,17.6 "/>
<path d="M24.5,21.3c0.3,0.2,0.4,0.4,0.5,0.7c0,0.3,0,0.5-0.2,0.8c-0.2,0.2-0.3,0.3-0.6,0.3c-0.2,0-0.5,0-0.7-0.1
	c-0.8-0.5-1.7-1-2.6-1.3c-1-0.3-2-0.5-3-0.5c-1.3,0-2.5,0.2-3.7,0.7c-1.1,0.5-2.1,1.1-3,2c-0.8,0.9-1.5,1.9-2,3.1s-0.7,2.5-0.7,3.9
	c0,1.5,0.2,2.8,0.7,4s1.1,2.2,2,3.1c0.9,0.9,1.8,1.5,3,2c1.1,0.5,2.3,0.7,3.6,0.7c1.1,0,2.1-0.2,3-0.5s1.8-0.7,2.6-1.2
	c0.2-0.1,0.4-0.2,0.7-0.1c0.2,0,0.4,0.2,0.6,0.4s0.2,0.5,0.2,0.8s-0.2,0.5-0.4,0.6c-0.5,0.3-1.2,0.7-1.9,1c-0.7,0.3-1.5,0.6-2.3,0.7
	c-0.8,0.2-1.6,0.3-2.5,0.3c-1.6,0-3-0.3-4.4-0.8c-1.4-0.6-2.6-1.4-3.6-2.4s-1.9-2.3-2.5-3.7s-0.9-3-0.9-4.8c0-1.7,0.3-3.2,0.9-4.6
	s1.4-2.6,2.4-3.7c1-1,2.2-1.9,3.6-2.4c1.4-0.6,2.9-0.9,4.4-0.9c1.2,0,2.4,0.2,3.6,0.5C22.5,20.2,23.5,20.7,24.5,21.3z"/>
<path d="M30.4,17.8c0.3,0,0.6,0.1,0.8,0.3c0.2,0.2,0.4,0.5,0.4,0.9v23c0,0.3-0.2,0.6-0.4,0.9c-0.2,0.2-0.5,0.3-0.8,0.3
	c-0.4,0-0.7-0.1-0.9-0.3c-0.2-0.2-0.3-0.5-0.3-0.9V19c0-0.3,0.1-0.6,0.3-0.9C29.7,17.9,30,17.8,30.4,17.8z M30.2,29h18.4v2.3H30
	L30.2,29z M48.5,16.8c0.4,0,0.7,0.1,0.9,0.3c0.2,0.2,0.3,0.5,0.3,0.9v25.7c0,0.3-0.1,0.6-0.4,0.9c-0.2,0.2-0.5,0.3-0.9,0.3
	c-0.3,0-0.6-0.1-0.9-0.3c-0.2-0.2-0.3-0.5-0.3-0.9V18c0-0.3,0.1-0.6,0.4-0.9C47.9,16.9,48.2,16.8,48.5,16.8z"/>
<path d="M55.4,45.6c-0.4,0-0.8-0.1-1.1-0.4c-0.3-0.3-0.4-0.6-0.4-0.9V17.6c0-0.3,0.1-0.7,0.4-0.9c0.2-0.3,0.6-0.4,0.9-0.4l11.2-0.6
	c1.7,0,3.1,0.4,4.4,1.1s2.6,1.7,3.4,3c0.7,1.2,1.4,2.3,1.4,4.8c0,2.7-1,4-2.1,5c-0.9,0.7-2.3,1.4-3.3,1.8l-1.5-0.5
	c1.1,0.1,2.1,0.5,3,1.1s1.7,1.4,2.2,2.4c0.6,1,0.9,3.3,0.9,4.7c0,1.2,0.1,2.2,0.2,2.9s0.3,1.2,0.5,1.6c0.2,0.3,0.5,0.6,0.8,0.8
	s0.5,0.4,0.6,0.7s0.1,0.6-0.1,0.9c-0.1,0.2-0.3,0.4-0.5,0.5s-0.5,0.2-0.7,0.2s-0.4-0.1-0.7-0.2c-0.4-0.2-0.9-0.6-1.3-1.1
	s-0.7-1.2-1-2.2s-0.4-2.3-0.4-4c0-1.1-0.2-3.1-0.5-3.8c-0.4-0.7-0.8-1.3-1.4-1.7s-1.2-0.7-1.9-0.8c-0.7-0.1-1.3-0.2-1.9-0.2H56.2
	l0.5-0.7v12.3c0,0.3-0.1,0.7-0.3,0.9C56.1,45.5,55.8,45.6,55.4,45.6z M56.2,30.2h10.9c1-0.1,1.8-0.6,2.8-1c2.3-0.8,2.9-3.4,2.9-4.7
	c0-1.7-1.1-3.6-2.2-4.7s-2.6-1.6-4.4-1.6l-9.8,0.6l0.3-0.6v12.5L56.2,30.2z"/>
<path d="M84.4,45.5c0,0.4-0.2,0.8-0.5,1c-0.3,0.3-0.6,0.4-1,0.4c-0.5,0-0.8-0.1-1.1-0.4c-0.3-0.3-0.4-0.6-0.4-1v-29
	c0-0.4,0.1-0.8,0.4-1s0.6-0.4,1.1-0.4c0.4,0,0.7,0.1,1,0.4c0.3,0.3,0.5,0.6,0.5,1V45.5z"/>
<path d="M101.4,48.5c-2.6,0-4.8-0.4-6.7-1.2c-1.9-0.8-3.7-2.1-5.4-3.8c-0.2-0.2-0.3-0.4-0.4-0.6c-0.1-0.2-0.2-0.4-0.2-0.7
	c0-0.4,0.2-0.8,0.5-1.1s0.7-0.5,1.1-0.5s0.8,0.2,1.1,0.5c1.3,1.4,2.8,2.5,4.5,3.2s3.5,1.1,5.4,1.1c1.6,0,3.1-0.3,4.3-0.8
	c1.3-0.5,2.3-1.2,3-2.2c0.7-0.9,1.1-2,1.1-3.3c0-1.5-0.5-2.8-1.3-3.7s-1.9-1.7-3.3-2.4c-1.4-0.6-2.9-1.2-4.6-1.7
	c-1.4-0.4-2.7-0.9-4-1.4s-2.4-1.2-3.3-1.9c-1-0.8-1.7-1.7-2.2-2.8c-0.5-1.1-0.8-2.4-0.8-4c0-1.8,0.5-3.4,1.4-4.8s2.3-2.5,4-3.3
	s3.7-1.2,6-1.2c2,0,3.9,0.3,5.7,1c1.8,0.7,3.3,1.7,4.4,3c0.5,0.5,0.8,1,0.8,1.5c0,0.4-0.2,0.7-0.5,1s-0.7,0.5-1.1,0.5
	c-0.3,0-0.6-0.1-0.9-0.4c-0.6-0.7-1.3-1.3-2.2-1.9c-0.9-0.6-1.8-1-2.9-1.3s-2.2-0.5-3.3-0.5c-1.6,0-3,0.2-4.3,0.7s-2.3,1.2-3,2.1
	s-1.1,2-1.1,3.3c0,1.4,0.4,2.6,1.2,3.5c0.8,0.9,1.9,1.6,3.2,2.2c1.3,0.6,2.7,1.1,4.2,1.6c1.4,0.4,2.8,0.9,4.2,1.4
	c1.3,0.5,2.5,1.2,3.5,1.9c1,0.8,1.8,1.7,2.4,2.9s0.9,2.7,0.9,4.4s-0.5,3.3-1.5,4.6c-1,1.4-2.3,2.5-4,3.3
	C105.7,48.1,103.7,48.5,101.4,48.5z"/>
<path d="M125,12.7c0.2,0,0.5,0.1,0.7,0.2c0.3,0.1,0.5,0.3,0.6,0.5l13.9,20.9l-1.4-0.1l13.6-18.8c0.4-0.5,0.8-0.7,1.4-0.7
	c0.4,0,0.7,0.1,1,0.4c0.3,0.3,0.4,0.6,0.4,1.1l0.3,28.7c0,0.4-0.2,0.8-0.5,1.1s-0.7,0.5-1.1,0.5c-0.4,0-0.8-0.2-1.1-0.5
	s-0.5-0.7-0.5-1.1L152,19.2l0.9,0.1l-12.4,17.2c-0.1,0.2-0.3,0.4-0.5,0.5s-0.4,0.2-0.7,0.2c-0.2,0-0.5-0.1-0.7-0.2
	c-0.2-0.1-0.4-0.3-0.5-0.5L125.3,17l1-0.7v30.3c0,0.4-0.1,0.8-0.4,1.1s-0.6,0.5-1.1,0.5c-0.4,0-0.8-0.2-1.1-0.5
	c-0.3-0.3-0.4-0.7-0.4-1.1V14.2c0-0.4,0.1-0.7,0.4-1C124.2,12.9,124.6,12.7,125,12.7z"/>
<path d="M171.6,19.4l-10.9,26c-0.1,0.3-0.3,0.5-0.5,0.7c-0.2,0.1-0.4,0.2-0.7,0.2c-0.4,0-0.8-0.1-1-0.3s-0.3-0.5-0.3-0.8
	c0-0.1,0-0.3,0-0.5L170,16.8c0.1-0.3,0.3-0.5,0.5-0.7c0.2-0.1,0.5-0.2,0.8-0.2s0.6,0.1,0.8,0.2c0.2,0.2,0.4,0.4,0.5,0.6L184,43.1
	c0.1,0.2,0.1,0.3,0.1,0.5c0,0.4-0.1,0.7-0.4,0.9c-0.3,0.2-0.6,0.3-0.9,0.3c-0.3,0-0.5-0.1-0.8-0.2c-0.2-0.2-0.4-0.4-0.5-0.6
	l-10.7-24.8L171.6,19.4z M163.8,36.8l1.1-2.6h13.5l0.5,2.6H163.8z"/>
<path d="M198.2,17.8c5,0.3,9.3,1.2,10.6,7.4c0.4,1.6,0.7,3.3,0.7,5.1c0,2.5-0.6,4.7-1.2,6.8c-0.6,1.9-2,3.2-3.8,4.3
	c-2.1,1.3-2.7,1.6-6.3,2l-9.9,0.8c-0.3,0-0.6-0.1-0.8-0.3s-0.3-0.5-0.3-0.8V18.4c0-0.3,0.1-0.7,0.3-1c0.2-0.2,0.5-0.3,0.8-0.3
	L198.2,17.8z M197.8,41.3c2.3-0.2,4-0.6,5.4-1.6c1.6-1.1,2.3-1.9,2.9-3.6c0.6-1.7,0.9-3.6,0.9-5.7c0-1.5-0.1-2.9-0.5-4.3
	c-1.6-5.5-5.3-5.6-8.7-6l-8.5-0.7l0.3-0.3v23.3l-0.2-0.4L197.8,41.3z"/>
<path d="M212.8,19.1l11.9,1c0.3,0,0.5,0.1,0.7,0.3c0.2,0.2,0.3,0.4,0.3,0.7c0,0.3-0.1,0.5-0.3,0.7s-0.4,0.3-0.7,0.3l-11.1-1l0.3-0.6
	v9.1l-0.4-0.4h9.7c0.3,0,0.5,0.1,0.7,0.3s0.3,0.4,0.3,0.7c0,0.3-0.1,0.5-0.3,0.7s-0.4,0.3-0.7,0.3h-9.6l0.3-0.3v10.5l-0.2-0.2
	l10.9-0.8c0.3,0,0.5,0.1,0.7,0.3s0.3,0.4,0.3,0.7s-0.1,0.5-0.3,0.7s-0.4,0.3-0.7,0.3l-11.9,0.8c-0.3,0-0.5-0.1-0.7-0.3
	s-0.3-0.4-0.3-0.7V20c0-0.3,0.1-0.5,0.3-0.7S212.5,19.1,212.8,19.1z"/>
</svg>
